<svg width="161" height="73" viewBox="0 0 161 73" fill="none" xmlns="http://www.w3.org/2000/svg">
<path d="M3.1379 71.6148C1.84875 71.0535 0.753035 69.6964 0.259767 68.05C-0.0588041 66.9867 -0.0110742 66.5599 0.574411 65.2363C1.58381 62.9544 2.91127 62.2277 5.74183 62.4076L7.97968 62.5498L18.9027 56.229L29.8257 49.9083L29.9196 36.7888C29.9713 29.573 29.9363 23.3655 29.842 22.9943C29.6288 22.1549 29.5503 22.1051 17.8459 15.3772L8.22839 9.84877L5.92575 9.93766C3.05005 10.0487 1.69514 9.32253 0.615032 7.09132C-0.0302811 5.75828 -0.077971 5.38765 0.253486 4.28136C0.764062 2.5772 1.85685 1.24757 3.21234 0.681215C4.71909 0.0516492 5.57192 0.0949368 7.20121 0.883663C8.76198 1.63922 9.56822 2.80338 9.89378 4.77159C10.1134 6.09905 10.1965 6.1669 14.9095 8.86477C17.5454 10.3736 22.4588 13.2029 25.8284 15.1522L31.9548 18.6962L40.1703 13.978C52.3051 7.00907 56.6196 4.62425 57.4865 4.40668C58.4829 4.15659 58.9272 4.38742 72.3282 12.1201C82.3148 17.8826 83.5367 18.502 84.3279 18.2034C84.8124 18.0205 90.2111 14.984 96.3249 11.4555C102.439 7.92711 107.943 4.78163 108.557 4.46562C109.867 3.79067 108.252 2.9912 124.636 12.4244C130.381 15.7322 135.269 18.4386 135.496 18.4386C135.835 18.4386 141.279 15.4528 149.875 10.5538C150.661 10.106 151.27 9.43962 151.486 8.79237C152.097 6.9567 154.391 5.27777 156.288 5.27777C157.514 5.27777 159.734 6.56591 160.373 7.64812C161.656 9.81939 160.891 13.1152 158.803 14.418C157.597 15.1702 155.146 15.1663 153.335 14.4091C152.362 14.0024 152.055 14.1387 145.442 17.9169C136.695 22.9135 136.017 23.2531 135.134 23.0842C134.732 23.0074 128.835 19.7263 122.029 15.7927L109.655 8.64082L98.593 15.0414C92.5089 18.5617 87.2273 21.6649 86.8561 21.9373C86.2037 22.4162 86.1755 22.9245 86.0124 37.1307C85.8501 51.2695 85.818 51.8535 85.1688 52.4811C84.1485 53.4673 58.6397 68.0446 57.9342 68.0446C57.5966 68.0446 51.621 64.7779 44.655 60.7852L31.9897 53.5258L23.9898 58.1345C9.96404 66.2147 10.3453 65.9552 9.90034 67.7236C9.35594 69.8871 8.56415 70.9416 7.0204 71.5593C5.41197 72.2029 4.51852 72.2156 3.1379 71.6144V71.6148ZM63.9796 60.0661C69.1662 57.087 77.2462 52.3744 80.36 50.5123L81.6255 49.7556V36.1261V22.4966L80.3097 21.666C76.3224 19.149 58.4566 8.98973 58.0164 8.98916C57.7309 8.98878 52.2962 11.9669 45.9393 15.6073L34.3814 22.2262V35.9829C34.3814 46.5818 34.4782 49.8177 34.8032 50.0798C35.767 50.857 57.4959 63.3206 57.8871 63.3206C58.1216 63.3206 60.8632 61.856 63.9796 60.0661ZM58.3901 59.8602C57.5253 58.9954 58.0421 58.3071 60.7874 56.6676C71.1292 50.4915 76.3289 47.697 76.8584 48.0304C77.8172 48.6342 77.6427 49.351 76.3248 50.2215C74.7184 51.2827 62.0262 58.606 60.1618 59.5475C59.1209 60.0731 58.6807 60.1508 58.3901 59.8602ZM36.48 46.532C36.3466 46.2072 36.2375 41.3424 36.2375 35.7213C36.2374 24.9049 36.2673 24.7007 37.7933 25.0998C38.4019 25.259 38.4309 25.7638 38.4309 36.1945V47.1226H37.5766C37.0804 47.1226 36.6208 46.8751 36.48 46.532ZM68.9354 20.2602C64.8717 17.9212 60.7495 15.5529 59.7751 14.9974C57.9453 13.9541 57.5599 13.1526 58.5092 12.3648C58.928 12.0172 59.7547 12.3658 63.318 14.3927C72.0013 19.332 77.2862 22.5572 77.4666 23.0272C77.6504 23.5062 77.0437 24.5129 76.5713 24.5129C76.4354 24.5129 72.9992 22.5992 68.9354 20.2602Z" fill="#40514E"/>
</svg>
