<svg width="149" height="67" viewBox="0 0 149 67" fill="none" xmlns="http://www.w3.org/2000/svg">
<path d="M2.85616 66.0471C1.66312 65.5277 0.649104 64.2717 0.192613 62.7481C-0.102206 61.7641 -0.0580344 61.3691 0.483798 60.1442C1.41794 58.0324 2.64642 57.3599 5.26594 57.5264L7.33694 57.658L17.4456 51.8085L27.5542 45.959L27.6411 33.8177C27.6889 27.1399 27.6566 21.3953 27.5693 21.0517C27.3719 20.2749 27.2993 20.2288 16.4676 14.0025L7.56711 8.88626L5.43616 8.96853C2.77486 9.07133 1.52097 8.39926 0.521391 6.33441C-0.0758093 5.10075 -0.119943 4.75776 0.1868 3.73395C0.659309 2.15685 1.67062 0.926356 2.92505 0.402227C4.31946 -0.180399 5.1087 -0.140339 6.61652 0.589582C8.06092 1.2888 8.80705 2.36617 9.10833 4.18763C9.31153 5.41612 9.38848 5.47891 13.7501 7.97563C16.1894 9.37198 20.7366 11.9903 23.8549 13.7942L29.5245 17.074L37.1275 12.7077C48.3575 6.25829 52.3504 4.05128 53.1526 3.84993C54.0747 3.61849 54.4859 3.8321 66.8877 10.9883C76.1298 16.3211 77.2606 16.8944 77.9928 16.618C78.4412 16.4488 83.4373 13.6386 89.0953 10.3732C94.7533 7.10788 99.8472 4.19692 100.415 3.90447C101.628 3.27985 100.133 2.53998 115.296 11.2698C120.613 14.3311 125.135 16.8357 125.346 16.8357C125.659 16.8357 130.698 14.0725 138.653 9.53878C139.38 9.1243 139.944 8.50762 140.143 7.90863C140.709 6.20982 142.832 4.65607 144.587 4.65607C145.722 4.65607 147.776 5.84817 148.368 6.8497C149.555 8.85908 148.848 11.9091 146.915 13.1148C145.799 13.8109 143.531 13.8074 141.855 13.1066C140.955 12.7302 140.671 12.8564 134.55 16.3528C126.455 20.9769 125.828 21.2912 125.01 21.1349C124.639 21.0638 119.182 18.0273 112.883 14.387L101.432 7.76838L91.1943 13.6917C85.5638 16.9496 80.676 19.8214 80.3324 20.0735C79.7288 20.5167 79.7026 20.9871 79.5517 34.1341C79.4015 47.2187 79.3718 47.7592 78.771 48.34C77.8268 49.2527 54.2199 62.7431 53.567 62.7431C53.2545 62.7431 47.7244 59.72 41.2779 56.025L29.5568 49.3068L22.1534 53.5719C9.17335 61.0497 9.52621 60.8095 9.1144 62.4461C8.61059 64.4482 7.87784 65.4242 6.44918 65.9958C4.96068 66.5914 4.13384 66.6031 2.85616 66.0468V66.0471ZM59.1616 55.3595C63.9615 52.6025 71.4391 48.2413 74.3207 46.518L75.4918 45.8177V33.2044V20.5911L74.2741 19.8224C70.5842 17.4931 54.0504 8.09128 53.6431 8.09075C53.3788 8.09039 48.3493 10.8465 42.4664 14.2155L31.7702 20.3408V33.0719C31.7702 42.8806 31.8598 45.8752 32.1605 46.1177C33.0525 46.837 53.1613 58.3713 53.5234 58.3713C53.7403 58.3713 56.2775 57.016 59.1616 55.3595V55.3595ZM53.9889 55.169C53.1885 54.3686 53.6668 53.7316 56.2075 52.2144C65.7781 46.4988 70.5902 43.9126 71.0802 44.2212C71.9676 44.7799 71.806 45.4433 70.5864 46.2489C69.0997 47.231 57.3538 54.0083 55.6284 54.8796C54.6652 55.366 54.2578 55.4379 53.9889 55.169V55.169ZM33.7123 42.8345C33.5889 42.5339 33.4879 38.0318 33.4879 32.8298C33.4878 22.8198 33.5155 22.6309 34.9277 23.0002C35.4909 23.1475 35.5178 23.6147 35.5178 33.2678V43.381H34.7272C34.268 43.381 33.8426 43.152 33.7123 42.8345ZM63.748 18.5214C59.9872 16.3568 56.1723 14.1651 55.2706 13.651C53.5772 12.6856 53.2205 11.9438 54.0991 11.2147C54.4867 10.893 55.2517 11.2156 58.5493 13.0914C66.5853 17.6624 71.4761 20.6472 71.643 21.0822C71.8131 21.5254 71.2517 22.4571 70.8145 22.4571C70.6887 22.4571 67.5088 20.686 63.748 18.5214V18.5214Z" fill="#F5F5F5" fill-opacity="0.1"/>
</svg>
